<svg width="98" height="97" viewBox="0 0 98 97" fill="none" xmlns="http://www.w3.org/2000/svg">
<path d="M5.39062 57.6875C5.39062 52.5312 6.35938 47.7188 8.29688 43.25C10.2344 38.75 13.0625 34.8438 16.7812 31.5312C20.5 28.2187 25.0625 25.6094 30.4688 23.7031C35.9062 21.7969 42.125 20.8438 49.125 20.8438C51.6562 20.8438 54.1875 20.9844 56.7188 21.2656C59.2812 21.5156 61.7969 21.9219 64.2656 22.4844C66.7656 23.0469 69.1875 23.7656 71.5312 24.6406C73.9062 25.4844 76.1562 26.5 78.2812 27.6875L71.4375 38.9375C70.1562 38.1875 68.7031 37.5156 67.0781 36.9219C65.4531 36.2969 63.7031 35.7812 61.8281 35.375C59.9844 34.9375 58.0625 34.6094 56.0625 34.3906C54.0938 34.1719 52.1094 34.0625 50.1094 34.0625C45.4844 34.0625 41.3594 34.6562 37.7344 35.8438C34.1094 37 31.0469 38.6406 28.5469 40.7656C26.0469 42.8594 24.1406 45.375 22.8281 48.3125C21.5156 51.25 20.8594 54.4688 20.8594 57.9688C20.8594 61.5938 21.5469 64.9219 22.9219 67.9531C24.2969 70.9844 26.25 73.5938 28.7812 75.7812C31.3125 77.9688 34.375 79.6875 37.9688 80.9375C41.5625 82.1562 45.5781 82.7656 50.0156 82.7656C53.5469 82.7656 56.7812 82.375 59.7188 81.5938C62.6562 80.7812 65.2188 79.6406 67.4062 78.1719C69.5938 76.7031 71.375 74.9375 72.75 72.875C74.125 70.7812 75.0312 68.4375 75.4688 65.8438H49.875V53.6094H88.8281V53.6562L88.875 53.6094C89.6562 57.3594 89.8906 61.0156 89.5781 64.5781C89.2969 68.1094 88.4844 71.4531 87.1406 74.6094C85.8281 77.7344 84.0156 80.6094 81.7031 83.2344C79.3906 85.8594 76.625 88.125 73.4062 90.0312C70.1875 91.9062 66.5312 93.375 62.4375 94.4375C58.3438 95.4688 53.8594 95.9844 48.9844 95.9844C42.1719 95.9844 36.0625 94.9844 30.6562 92.9844C25.2812 90.9844 20.7188 88.25 16.9688 84.7812C13.2188 81.3125 10.3438 77.25 8.34375 72.5938C6.375 67.9375 5.39062 62.9688 5.39062 57.6875Z" fill="#8EC5FF"/>
<path d="M68.1867 27.0634C69.5338 22.9487 70.1223 14.9858 68.1867 11.1433C68.1867 11.1433 64.1298 10.2294 55.1722 16.8081C47.3017 15.2261 39.1116 15.7148 31.4427 18.224C21.8913 12.7498 17.948 14.1411 17.948 14.1411C16.4013 18.1913 17.7223 26.2635 19.4658 30.1939" stroke="#8EC5FF" stroke-width="6" stroke-linecap="round" stroke-linejoin="round"/>
</svg>
