<svg width="512" height="102" viewBox="0 0 512 102" fill="none" xmlns="http://www.w3.org/2000/svg">
<path d="M5.39062 57.6875C5.39062 52.5312 6.35938 47.7188 8.29688 43.25C10.2344 38.75 13.0625 34.8438 16.7812 31.5312C20.5 28.2187 25.0625 25.6094 30.4688 23.7031C35.9062 21.7969 42.125 20.8438 49.125 20.8438C51.6562 20.8438 54.1875 20.9844 56.7188 21.2656C59.2812 21.5156 61.7969 21.9219 64.2656 22.4844C66.7656 23.0469 69.1875 23.7656 71.5312 24.6406C73.9062 25.4844 76.1562 26.5 78.2812 27.6875L71.4375 38.9375C70.1562 38.1875 68.7031 37.5156 67.0781 36.9219C65.4531 36.2969 63.7031 35.7812 61.8281 35.375C59.9844 34.9375 58.0625 34.6094 56.0625 34.3906C54.0938 34.1719 52.1094 34.0625 50.1094 34.0625C45.4844 34.0625 41.3594 34.6562 37.7344 35.8438C34.1094 37 31.0469 38.6406 28.5469 40.7656C26.0469 42.8594 24.1406 45.375 22.8281 48.3125C21.5156 51.25 20.8594 54.4688 20.8594 57.9688C20.8594 61.5938 21.5469 64.9219 22.9219 67.9531C24.2969 70.9844 26.25 73.5938 28.7812 75.7812C31.3125 77.9688 34.375 79.6875 37.9688 80.9375C41.5625 82.1562 45.5781 82.7656 50.0156 82.7656C53.5469 82.7656 56.7812 82.375 59.7188 81.5938C62.6562 80.7812 65.2188 79.6406 67.4062 78.1719C69.5938 76.7031 71.375 74.9375 72.75 72.875C74.125 70.7812 75.0312 68.4375 75.4688 65.8438H49.875V53.6094H88.8281V53.6562L88.875 53.6094C89.6562 57.3594 89.8906 61.0156 89.5781 64.5781C89.2969 68.1094 88.4844 71.4531 87.1406 74.6094C85.8281 77.7344 84.0156 80.6094 81.7031 83.2344C79.3906 85.8594 76.625 88.125 73.4062 90.0312C70.1875 91.9062 66.5312 93.375 62.4375 94.4375C58.3438 95.4688 53.8594 95.9844 48.9844 95.9844C42.1719 95.9844 36.0625 94.9844 30.6562 92.9844C25.2812 90.9844 20.7188 88.25 16.9688 84.7812C13.2188 81.3125 10.3438 77.25 8.34375 72.5938C6.375 67.9375 5.39062 62.9688 5.39062 57.6875ZM111.984 32.1406C110.609 32.1406 109.359 31.9531 108.234 31.5781C107.141 31.1719 106.203 30.6406 105.422 29.9844C104.641 29.2969 104.031 28.5156 103.594 27.6406C103.188 26.7344 102.984 25.7812 102.984 24.7812C102.984 23.75 103.188 22.7969 103.594 21.9219C104.031 21.0156 104.641 20.2344 105.422 19.5781C106.203 18.9219 107.141 18.4062 108.234 18.0312C109.359 17.625 110.609 17.4219 111.984 17.4219C113.391 17.4219 114.641 17.625 115.734 18.0312C116.859 18.4062 117.812 18.9219 118.594 19.5781C119.375 20.2344 119.969 21.0156 120.375 21.9219C120.812 22.7969 121.031 23.75 121.031 24.7812C121.031 25.7812 120.812 26.7344 120.375 27.6406C119.969 28.5156 119.375 29.2969 118.594 29.9844C117.812 30.6406 116.859 31.1719 115.734 31.5781C114.641 31.9531 113.391 32.1406 111.984 32.1406ZM105.047 39.6875H118.922V95H105.047V39.6875ZM145.078 50.0938H131.719V39.6875H145.078V22.4844H158.953V39.6875H172.312V50.0938H158.953V95H145.078V50.0938ZM186.375 21.7344H251.906V34.7656H201.234V53.9375H244.266V66.1719H201.234V95H186.375V21.7344ZM261.188 67.3438C261.188 63.375 261.984 59.6562 263.578 56.1875C265.203 52.7188 267.5 49.6875 270.469 47.0938C273.469 44.5 277.078 42.4531 281.297 40.9531C285.547 39.4531 290.312 38.7031 295.594 38.7031C300.875 38.7031 305.625 39.4531 309.844 40.9531C314.094 42.4531 317.703 44.5 320.672 47.0938C323.672 49.6875 325.969 52.7188 327.562 56.1875C329.188 59.6562 330 63.375 330 67.3438C330 71.3125 329.188 75.0312 327.562 78.5C325.969 81.9688 323.672 85 320.672 87.5938C317.703 90.1875 314.094 92.2344 309.844 93.7344C305.625 95.2344 300.875 95.9844 295.594 95.9844C290.312 95.9844 285.547 95.2344 281.297 93.7344C277.078 92.2344 273.469 90.1875 270.469 87.5938C267.5 85 265.203 81.9688 263.578 78.5C261.984 75.0312 261.188 71.3125 261.188 67.3438ZM275.766 67.3438C275.766 69.5625 276.203 71.6719 277.078 73.6719C277.984 75.6406 279.281 77.3906 280.969 78.9219C282.688 80.4219 284.766 81.625 287.203 82.5312C289.672 83.4062 292.469 83.8438 295.594 83.8438C298.719 83.8438 301.5 83.4062 303.938 82.5312C306.406 81.625 308.484 80.4219 310.172 78.9219C311.891 77.3906 313.188 75.6406 314.062 73.6719C314.969 71.6719 315.422 69.5625 315.422 67.3438C315.422 65.125 314.969 63.0156 314.062 61.0156C313.188 59.0156 311.891 57.2656 310.172 55.7656C308.484 54.2344 306.406 53.0312 303.938 52.1562C301.5 51.25 298.719 50.7969 295.594 50.7969C292.469 50.7969 289.672 51.25 287.203 52.1562C284.766 53.0312 282.688 54.2344 280.969 55.7656C279.281 57.2656 277.984 59.0156 277.078 61.0156C276.203 63.0156 275.766 65.125 275.766 67.3438ZM344.391 17.2344H358.266V95H344.391V17.2344ZM376.453 17.2344H390.328V95H376.453V17.2344ZM415.453 32.1406C414.078 32.1406 412.828 31.9531 411.703 31.5781C410.609 31.1719 409.672 30.6406 408.891 29.9844C408.109 29.2969 407.5 28.5156 407.062 27.6406C406.656 26.7344 406.453 25.7812 406.453 24.7812C406.453 23.75 406.656 22.7969 407.062 21.9219C407.5 21.0156 408.109 20.2344 408.891 19.5781C409.672 18.9219 410.609 18.4062 411.703 18.0312C412.828 17.625 414.078 17.4219 415.453 17.4219C416.859 17.4219 418.109 17.625 419.203 18.0312C420.328 18.4062 421.281 18.9219 422.062 19.5781C422.844 20.2344 423.438 21.0156 423.844 21.9219C424.281 22.7969 424.5 23.75 424.5 24.7812C424.5 25.7812 424.281 26.7344 423.844 27.6406C423.438 28.5156 422.844 29.2969 422.062 29.9844C421.281 30.6406 420.328 31.1719 419.203 31.5781C418.109 31.9531 416.859 32.1406 415.453 32.1406ZM408.516 39.6875H422.391V95H408.516V39.6875ZM436.875 67.3438C436.875 63.375 437.672 59.6562 439.266 56.1875C440.891 52.7188 443.188 49.6875 446.156 47.0938C449.156 44.5 452.766 42.4531 456.984 40.9531C461.234 39.4531 466 38.7031 471.281 38.7031C476.562 38.7031 481.312 39.4531 485.531 40.9531C489.781 42.4531 493.391 44.5 496.359 47.0938C499.359 49.6875 501.656 52.7188 503.25 56.1875C504.875 59.6562 505.688 63.375 505.688 67.3438C505.688 71.3125 504.875 75.0312 503.25 78.5C501.656 81.9688 499.359 85 496.359 87.5938C493.391 90.1875 489.781 92.2344 485.531 93.7344C481.312 95.2344 476.562 95.9844 471.281 95.9844C466 95.9844 461.234 95.2344 456.984 93.7344C452.766 92.2344 449.156 90.1875 446.156 87.5938C443.188 85 440.891 81.9688 439.266 78.5C437.672 75.0312 436.875 71.3125 436.875 67.3438ZM451.453 67.3438C451.453 69.5625 451.891 71.6719 452.766 73.6719C453.672 75.6406 454.969 77.3906 456.656 78.9219C458.375 80.4219 460.453 81.625 462.891 82.5312C465.359 83.4062 468.156 83.8438 471.281 83.8438C474.406 83.8438 477.188 83.4062 479.625 82.5312C482.094 81.625 484.172 80.4219 485.859 78.9219C487.578 77.3906 488.875 75.6406 489.75 73.6719C490.656 71.6719 491.109 69.5625 491.109 67.3438C491.109 65.125 490.656 63.0156 489.75 61.0156C488.875 59.0156 487.578 57.2656 485.859 55.7656C484.172 54.2344 482.094 53.0312 479.625 52.1562C477.188 51.25 474.406 50.7969 471.281 50.7969C468.156 50.7969 465.359 51.25 462.891 52.1562C460.453 53.0312 458.375 54.2344 456.656 55.7656C454.969 57.2656 453.672 59.0156 452.766 61.0156C451.891 63.0156 451.453 65.125 451.453 67.3438Z" fill="#8EC5FF"/>
<path d="M68.6319 27C69.979 23.0567 70.5674 15.4256 68.6319 11.7432C68.6319 11.7432 64.575 10.8674 55.6174 17.1719C47.7469 15.6558 39.5568 16.1242 31.8879 18.5289C22.3365 13.2827 18.3932 14.616 18.3932 14.616C16.8465 18.4975 18.1675 26.2334 19.911 30" stroke="#8EC5FF" stroke-width="6" stroke-linecap="round" stroke-linejoin="round"/>
</svg>
